<?xml version="1.0" encoding="utf-8"?>
<!-- Generator: Adobe Illustrator 12.0.0, SVG Export Plug-In . SVG Version: 6.00 Build 51448)  -->
<!DOCTYPE svg PUBLIC "-//W3C//DTD SVG 1.1//EN" "http://www.w3.org/Graphics/SVG/1.1/DTD/svg11.dtd" [
	<!ENTITY ns_svg "http://www.w3.org/2000/svg">
	<!ENTITY ns_xlink "http://www.w3.org/1999/xlink">
]>
<svg  version="1.1" xmlns="&ns_svg;" xmlns:xlink="&ns_xlink;" width="63.875" height="62.834" viewBox="0 0 63.875 62.834"
	 overflow="visible" enable-background="new 0 0 63.875 62.834" xml:space="preserve">
<g id="Layer_2">
	<line fill="none" stroke="#FF0000" x1="0.708" y1="42.563" x2="63.625" y2="42.563"/>
	<line fill="none" stroke="#FF0000" x1="17.375" y1="62.334" x2="45.375" y2="62.334"/>
	<polyline fill="none" stroke="#FF0000" points="24.958,51.584 24.958,58.25 23.958,59.834 22.958,60.834 19.792,62.334 	"/>
	<polyline fill="none" stroke="#FF0000" points="38.043,51.5 38.043,58.166 39.043,59.75 40.043,60.75 43.21,62.25 	"/>
	<path fill="none" stroke="#FF0000" d="M63.375,48.831c0,1.405-1.406,2.544-3.144,2.544H3.644c-1.737,0-3.144-1.139-3.144-2.544
		V3.044C0.5,1.638,1.906,0.5,3.644,0.5h56.588c1.737,0,3.144,1.138,3.144,2.544V48.831z"/>
	<g id="_x3C_gearset1_x3E_">
		<ellipse fill="none" stroke="#000000" cx="22.89" cy="20.978" rx="12.176" ry="11.571"/>
		<ellipse fill="none" stroke="#000000" cx="22.89" cy="20.978" rx="0.942" ry="0.896"/>
		<path fill="none" stroke="#000000" d="M24.331,24.067c-0.807,0.742-2.103,0.712-2.9-0.069"/>
		<path fill="none" stroke="#000000" d="M21.542,18.323c0.796-0.754,2.092-0.742,2.902,0.028"/>
		<polyline fill="none" stroke="#000000" points="33.614,27.041 36.692,28.21 38.218,24.623 35.022,23.353 		"/>
		<polyline fill="none" stroke="#000000" points="17.754,31.875 16.899,34.914 20.828,35.928 21.774,32.763 		"/>
		<polyline fill="none" stroke="#000000" points="31.424,12.201 33.198,9.542 29.772,7.453 27.87,10.204 		"/>
		<polyline fill="none" stroke="#000000" points="27.132,32.239 28.721,35 32.302,33.16 30.688,30.248 		"/>
		<polyline fill="none" stroke="#000000" points="11.807,26.427 9.132,28.285 11.521,31.419 14.35,29.518 		"/>
		<polyline fill="none" stroke="#000000" points="22.754,9.144 22.198,6.04 18.181,6.674 18.708,9.927 		"/>
		<polyline fill="none" stroke="#000000" points="35.134,19.333 38.341,18.538 37.331,14.79 33.964,15.571 		"/>
		<polyline fill="none" stroke="#000000" points="14.46,12.384 11.847,10.449 9.331,13.491 12.03,15.555 		"/>
		<polyline fill="none" stroke="#000000" points="10.628,18.993 7.314,18.926 7.212,22.794 10.673,22.916 		"/>
		<ellipse fill="none" stroke="#000000" cx="45.063" cy="29.516" rx="7.387" ry="7.02"/>
		<ellipse fill="none" stroke="#000000" cx="45.063" cy="29.516" rx="0.941" ry="0.895"/>
		<polyline fill="none" stroke="#000000" points="43.208,22.604 41.53,19.888 38.008,21.833 39.715,24.697 		"/>
		<polyline fill="none" stroke="#000000" points="48.212,36.074 50.265,38.547 53.474,36.162 51.37,33.549 		"/>
		<polyline fill="none" stroke="#000000" points="37.367,29.244 34.218,30.216 35.453,33.905 38.766,32.937 		"/>
		<polyline fill="none" stroke="#000000" points="40.773,35.447 39.543,38.371 43.321,39.822 44.654,36.783 		"/>
		<polyline fill="none" stroke="#000000" points="50.657,24.56 52.513,21.951 49.152,19.767 47.167,22.464 		"/>
		<polyline fill="none" stroke="#000000" points="52.221,31.057 55.531,30.974 55.445,27.104 51.98,27.14 		"/>
		<path fill="none" stroke="#000000" d="M41.992,30.784c-0.788-0.761-0.767-1.994,0.05-2.757"/>
		<path fill="none" stroke="#000000" d="M47.846,28.195c0.8,0.749,0.798,1.981-0.007,2.757"/>
	</g>
</g>
<g id="Layer_3">
	<g id="_x3C_gearset2_x3E_">
		<path fill="none" stroke="#000000" d="M20.792,32.277c-6.591-1.071-11.019-7.005-9.89-13.255
			c1.129-6.249,7.388-10.447,13.979-9.376c6.592,1.071,11.021,7.004,9.892,13.253C33.645,29.149,27.385,33.348,20.792,32.277z"/>
		<path fill="none" stroke="#000000" d="M22.679,21.837c-0.51-0.083-0.853-0.542-0.765-1.025c0.087-0.484,0.571-0.809,1.081-0.726
			c0.51,0.083,0.853,0.542,0.765,1.025S23.189,21.92,22.679,21.837z"/>
		<path fill="none" stroke="#000000" d="M19.409,21.783c-0.629-0.875-0.381-2.074,0.559-2.685"/>
		<path fill="none" stroke="#000000" d="M25.802,20.154c0.645,0.865,0.415,2.068-0.516,2.692"/>
		<polyline fill="none" stroke="#000000" points="14.782,29.912 13.06,32.576 16.503,34.598 18.35,31.839 		"/>
		<polyline fill="none" stroke="#000000" points="12.46,14.363 9.467,13.059 7.761,16.541 10.869,17.951 		"/>
		<polyline fill="none" stroke="#000000" points="30.458,30.363 32.902,32.458 35.633,29.623 33.115,27.394 		"/>
		<polyline fill="none" stroke="#000000" points="10.51,23.017 7.394,24.032 8.69,27.667 11.966,26.656 		"/>
		<polyline fill="none" stroke="#000000" points="19.078,9.749 17.61,6.952 13.977,8.647 15.463,11.593 		"/>
		<polyline fill="none" stroke="#000000" points="35.066,22.818 38.361,22.821 38.383,18.981 34.939,18.927 		"/>
		<polyline fill="none" stroke="#000000" points="22.478,32.617 22.759,35.73 26.796,35.418 26.554,32.159 		"/>
		<polyline fill="none" stroke="#000000" points="33.117,14.567 35.553,12.462 32.836,9.615 30.255,11.777 		"/>
		<polyline fill="none" stroke="#000000" points="26.944,9.898 27.569,6.831 23.596,6.087 22.89,9.284 		"/>
		<path fill="none" stroke="#000000" d="M44.777,36.543c-4.057-0.135-7.227-3.363-7.082-7.208c0.145-3.844,3.547-6.851,7.604-6.713
			c4.055,0.136,7.225,3.364,7.082,7.208C52.236,33.674,48.832,36.68,44.777,36.543z"/>
		
			<ellipse transform="matrix(-0.0374 0.9993 -0.9993 -0.0374 76.2844 -14.3193)" fill="none" stroke="#000000" cx="45.039" cy="29.583" rx="0.888" ry="0.938"/>
		<polyline fill="none" stroke="#000000" points="52.332,28.077 55.232,26.592 53.32,23.206 50.266,24.715 		"/>
		<polyline fill="none" stroke="#000000" points="38.066,32.319 35.408,34.166 37.791,37.273 40.598,35.383 		"/>
		<polyline fill="none" stroke="#000000" points="45.594,22.34 44.689,19.337 40.787,20.373 41.684,23.529 		"/>
		<polyline fill="none" stroke="#000000" points="38.986,25.333 35.971,24.071 34.32,27.579 37.451,28.941 		"/>
		<polyline fill="none" stroke="#000000" points="50.025,35.027 52.686,36.869 55.09,33.779 52.34,31.813 		"/>
		<polyline fill="none" stroke="#000000" points="43.174,36.273 43.145,39.396 47.195,39.449 47.279,36.186 		"/>
		<path fill="none" stroke="#000000" d="M43.82,26.645c0.824-0.715,2.113-0.651,2.883,0.145"/>
		<path fill="none" stroke="#000000" d="M46.32,32.25c-0.811,0.728-2.1,0.683-2.883-0.102"/>
	</g>
</g>
</svg>
