<?xml version="1.0" encoding="utf-8"?>
<!-- Generator: Adobe Illustrator 12.0.0, SVG Export Plug-In . SVG Version: 6.00 Build 51448)  -->
<!DOCTYPE svg PUBLIC "-//W3C//DTD SVG 1.1//EN" "http://www.w3.org/Graphics/SVG/1.1/DTD/svg11.dtd" [
	<!ENTITY ns_svg "http://www.w3.org/2000/svg">
	<!ENTITY ns_xlink "http://www.w3.org/1999/xlink">
]>
<svg  version="1.1" id="Layer_1" xmlns="&ns_svg;" xmlns:xlink="&ns_xlink;" width="63.875" height="62.834"
	 viewBox="0 0 63.875 62.834" overflow="visible" enable-background="new 0 0 63.875 62.834" xml:space="preserve">
<g id="_x3C_computer_x3E_">
	<g>
		<rect x="17.375" y="61.834" fill="#FF0000" stroke="#FF0000" width="28" height="1"/>
	</g>
	<g>
		<rect x="0.708" y="42.063" fill="#FF0000" stroke="#FF0000" width="62.917" height="1"/>
	</g>
	<g>
		<path fill="#FF0000" stroke="#FF0000" d="M24.458,51.584c0,0,0,6.244,0,6.521c-0.131,0.208-0.923,1.462-0.923,1.462
			s-0.757,0.742-0.867,0.851c-0.145,0.068-3.09,1.464-3.09,1.464l0.428,0.904l3.245-1.537l1.061-1.062l1.146-1.793v-6.811H24.458z"
			/>
	</g>
	<g>
		<path fill="#FF0000" stroke="#FF0000" d="M37.543,51.5v6.811l1.077,1.706l1.131,1.148l3.245,1.537l0.428-0.904
			c0,0-2.939-1.393-3.089-1.463c-0.107-0.107-0.938-0.938-0.938-0.938s-0.724-1.164-0.854-1.373c0-0.273,0-6.523,0-6.523H37.543z"/>
	</g>
	<g>
		<path fill="#FF0000" stroke="#FF0000" d="M3.644,0C1.635,0,0,1.366,0,3.044v45.787c0,1.679,1.635,3.044,3.644,3.044H60.23
			c2.01,0,3.645-1.365,3.645-3.044c0,0-0.081,0.081-0.134,0.134c0.133-0.632,0.134-2.379,0.135-7.288V3.044
			C63.876,1.366,62.241,0,60.232,0H3.644z M1,48.831V3.044C1,1.917,2.186,1,3.644,1h56.588c1.458,0,2.644,0.917,2.644,2.044v45.787
			h-0.001c0,1.127-1.187,2.044-2.645,2.044H3.644C2.186,50.875,1,49.958,1,48.831z"/>
	</g>
</g>
<g id="_x3C_gearset1_x3E_">
	<ellipse fill="none" stroke="#000000" cx="22.89" cy="20.978" rx="12.176" ry="11.571"/>
	<ellipse fill="none" stroke="#000000" cx="22.89" cy="20.978" rx="0.942" ry="0.896"/>
	<path fill="none" stroke="#000000" d="M24.331,24.067c-0.807,0.742-2.103,0.712-2.9-0.069"/>
	<path fill="none" stroke="#000000" d="M21.542,18.323c0.796-0.754,2.092-0.742,2.902,0.028"/>
	<polyline fill="none" stroke="#000000" points="33.613,27.041 36.691,28.21 38.218,24.623 35.021,23.353 	"/>
	<polyline fill="none" stroke="#000000" points="17.754,31.875 16.899,34.914 20.828,35.928 21.774,32.763 	"/>
	<polyline fill="none" stroke="#000000" points="31.424,12.201 33.198,9.542 29.772,7.453 27.87,10.204 	"/>
	<polyline fill="none" stroke="#000000" points="27.132,32.239 28.721,35 32.302,33.16 30.688,30.248 	"/>
	<polyline fill="none" stroke="#000000" points="11.807,26.427 9.132,28.285 11.521,31.419 14.35,29.518 	"/>
	<polyline fill="none" stroke="#000000" points="22.754,9.144 22.198,6.04 18.181,6.674 18.708,9.927 	"/>
	<polyline fill="none" stroke="#000000" points="35.134,19.333 38.341,18.538 37.331,14.79 33.964,15.571 	"/>
	<polyline fill="none" stroke="#000000" points="14.46,12.384 11.847,10.449 9.331,13.491 12.03,15.555 	"/>
	<polyline fill="none" stroke="#000000" points="10.628,18.993 7.314,18.926 7.212,22.794 10.673,22.916 	"/>
	<ellipse fill="none" stroke="#000000" cx="45.063" cy="29.516" rx="7.388" ry="7.02"/>
	<ellipse fill="none" stroke="#000000" cx="45.063" cy="29.516" rx="0.941" ry="0.895"/>
	<polyline fill="none" stroke="#000000" points="43.208,22.604 41.529,19.888 38.008,21.833 39.715,24.697 	"/>
	<polyline fill="none" stroke="#000000" points="48.212,36.074 50.266,38.547 53.475,36.162 51.37,33.549 	"/>
	<polyline fill="none" stroke="#000000" points="37.367,29.244 34.218,30.216 35.453,33.905 38.766,32.937 	"/>
	<polyline fill="none" stroke="#000000" points="40.773,35.447 39.543,38.371 43.32,39.822 44.654,36.783 	"/>
	<polyline fill="none" stroke="#000000" points="50.657,24.56 52.514,21.951 49.152,19.767 47.167,22.464 	"/>
	<polyline fill="none" stroke="#000000" points="52.221,31.057 55.531,30.974 55.445,27.104 51.98,27.14 	"/>
	<path fill="none" stroke="#000000" d="M41.992,30.784c-0.788-0.761-0.768-1.994,0.05-2.757"/>
	<path fill="none" stroke="#000000" d="M47.846,28.195c0.801,0.749,0.799,1.981-0.007,2.757"/>
</g>
<g id="Layer_3">
	<g id="_x3C_gearset2_x3E_">
		<path fill="none" stroke="#000000" d="M20.792,32.276c-6.591-1.07-11.019-7.004-9.89-13.254
			c1.129-6.249,7.388-10.447,13.979-9.376c6.592,1.071,11.021,7.004,9.893,13.253C33.645,29.149,27.385,33.349,20.792,32.276z"/>
		<path fill="none" stroke="#000000" d="M22.679,21.837c-0.51-0.083-0.853-0.542-0.765-1.025c0.087-0.484,0.571-0.809,1.081-0.726
			c0.51,0.083,0.853,0.542,0.765,1.025C23.672,21.594,23.189,21.92,22.679,21.837z"/>
		<path fill="none" stroke="#000000" d="M19.409,21.783c-0.629-0.875-0.381-2.074,0.559-2.685"/>
		<path fill="none" stroke="#000000" d="M25.802,20.154c0.645,0.865,0.415,2.068-0.516,2.692"/>
		<polyline fill="none" stroke="#000000" points="14.782,29.912 13.06,32.576 16.503,34.599 18.35,31.839 		"/>
		<polyline fill="none" stroke="#000000" points="12.46,14.363 9.467,13.059 7.761,16.541 10.869,17.951 		"/>
		<polyline fill="none" stroke="#000000" points="30.458,30.363 32.902,32.458 35.633,29.623 33.115,27.394 		"/>
		<polyline fill="none" stroke="#000000" points="10.51,23.017 7.394,24.032 8.69,27.667 11.966,26.656 		"/>
		<polyline fill="none" stroke="#000000" points="19.078,9.749 17.61,6.952 13.977,8.647 15.463,11.593 		"/>
		<polyline fill="none" stroke="#000000" points="35.066,22.818 38.361,22.821 38.383,18.981 34.939,18.927 		"/>
		<polyline fill="none" stroke="#000000" points="22.478,32.617 22.759,35.729 26.796,35.418 26.554,32.159 		"/>
		<polyline fill="none" stroke="#000000" points="33.117,14.567 35.553,12.462 32.836,9.615 30.255,11.777 		"/>
		<polyline fill="none" stroke="#000000" points="26.944,9.898 27.569,6.831 23.596,6.087 22.89,9.284 		"/>
		<path fill="none" stroke="#000000" d="M44.777,36.543c-4.057-0.135-7.228-3.362-7.082-7.208c0.145-3.844,3.547-6.851,7.604-6.713
			c4.055,0.136,7.225,3.364,7.082,7.208C52.236,33.674,48.832,36.681,44.777,36.543z"/>
		
			<ellipse transform="matrix(0.9993 0.0372 -0.0372 0.9993 1.132 -1.6555)" fill="none" stroke="#000000" cx="45.037" cy="29.582" rx="0.938" ry="0.888"/>
		<polyline fill="none" stroke="#000000" points="52.332,28.077 55.232,26.592 53.32,23.206 50.266,24.715 		"/>
		<polyline fill="none" stroke="#000000" points="38.066,32.319 35.408,34.166 37.791,37.272 40.598,35.383 		"/>
		<polyline fill="none" stroke="#000000" points="45.594,22.34 44.689,19.337 40.787,20.373 41.684,23.529 		"/>
		<polyline fill="none" stroke="#000000" points="38.986,25.333 35.971,24.071 34.32,27.579 37.451,28.941 		"/>
		<polyline fill="none" stroke="#000000" points="50.025,35.026 52.686,36.869 55.09,33.778 52.34,31.813 		"/>
		<polyline fill="none" stroke="#000000" points="43.174,36.272 43.145,39.396 47.195,39.449 47.279,36.187 		"/>
		<path fill="none" stroke="#000000" d="M43.82,26.645c0.824-0.715,2.113-0.651,2.883,0.145"/>
		<path fill="none" stroke="#000000" d="M46.32,32.25c-0.812,0.728-2.1,0.683-2.883-0.103"/>
	</g>
</g>
</svg>
