<?xml version="1.0" encoding="utf-8"?>
<!-- Generator: Adobe Illustrator 12.0.0, SVG Export Plug-In . SVG Version: 6.00 Build 51448)  -->
<!DOCTYPE svg PUBLIC "-//W3C//DTD SVG 1.1//EN" "http://www.w3.org/Graphics/SVG/1.1/DTD/svg11.dtd" [
	<!ENTITY ns_svg "http://www.w3.org/2000/svg">
	<!ENTITY ns_xlink "http://www.w3.org/1999/xlink">
]>
<svg  version="1.1" id="Layer_1" xmlns="&ns_svg;" xmlns:xlink="&ns_xlink;" width="64.212" height="64.902"
	 viewBox="0 0 64.212 64.902" overflow="visible" enable-background="new 0 0 64.212 64.902" xml:space="preserve">
<g>
	<g>
		<path stroke="#000000" stroke-width="0.25" d="M12.501,21.274l-1.16,0.128l-1.103-0.064L9.251,21.67l-1.056,0.591l-1.066,0.992
			l-0.675,0.49L5.745,25.04l-0.457,1.173l-0.384,1.091l-0.14,1.592l0.191,1.519l0.387,1.497l0.657,1.264l0.704,1.219l0.896,1.411
			l0.95,1.588l1.229,1.497l1.052,0.863l1.164,0.778l1.271,0.413l1.039,0.556l1.592,0.344l1.705,0.443l0.968,0.193l1.054,0.728
			l1.443,0.598l1.096,0.082l0.972,0.247l1.127,0.071l1.614-0.063l1.366,0.127l1.496-0.063l2.015-0.451l1.732-0.516l1.594-0.511
			l1.629-0.845l1.522-0.763l1.186-0.919l0.786-0.785l0.625-1.417l0.332-1.379l0.195-1.491L40.293,34l-0.191-1.796l-0.259-1.359
			l-0.597-1.153l-0.917-1.125l-0.652-0.655l-0.671-0.741l-1.207-0.403l-0.928-0.436l-1.025-0.148l-0.62-0.125l-0.903-0.13
			l-0.85-0.044l-1.504-0.21l-1.165-0.066l-0.852-0.186l-1.076-0.254l-1.342,0.058L24.583,25.1l-1.034-0.065l-0.913-0.307
			l-0.885-0.075l-0.772-0.245l-1.351-0.323l-1.488-0.625l-1.383-0.694l-1.117-0.749l-1.809-0.809L12.501,21.274z M12.542,21.772
			c0,0,1.088-0.054,1.196-0.06c0.103,0.046,1.663,0.741,1.663,0.741l1.106,0.744l1.426,0.717l1.542,0.644l1.373,0.332l0.811,0.25
			l0.88,0.074l0.917,0.307l1.08,0.076l0.979,0.126l1.316-0.063l1.011,0.249l0.896,0.192l1.182,0.069l1.505,0.21l0.849,0.044
			l0.868,0.125l0.622,0.125l0.969,0.13l0.882,0.425c0,0,0.997,0.334,1.108,0.372c0.076,0.083,0.592,0.653,0.592,0.653l0.645,0.646
			l0.873,1.065l0.545,1.042l0.23,1.269l0.187,1.764l0.063,1.072l-0.188,1.419l-0.313,1.313l-0.559,1.298l-0.71,0.687l-1.121,0.872
			L35.48,41.44l-1.593,0.83l-1.55,0.493l-1.711,0.51l-1.955,0.44l-1.418,0.059l-1.365-0.127l-1.622,0.063l-1.057-0.063l-0.971-0.247
			l-1.062-0.07l-1.32-0.557l-1.1-0.741l-1.044-0.228l-1.703-0.443l-1.538-0.322l-1.015-0.549l-1.25-0.4l-1.082-0.734l-0.998-0.814
			l-1.173-1.431l-0.932-1.563L7.13,34.136l-0.694-1.202l-0.631-1.202L5.444,30.32L5.26,28.884l0.128-1.477l0.368-1.021l0.442-1.14
			l0.624-1.185l0.625-0.424l1.041-0.976l0.969-0.538l0.852-0.301l1.046,0.078L12.542,21.772z"/>
	</g>
</g>
<g id="_x3C_DNA_x3E_">
	<g>
		<path d="M19.126,28.646l-0.817,0.176l-0.72,0.461l-0.638,0.675l-0.525,0.7l-0.561,1.115l0.046,1.399l0.581,1.031l1.016,1.03
			l1.362,0.525l1.298,0.1l1.676-0.042l1.19-0.042l1.272,0.168l1.437,0.82l1.601,0.846l1.69-0.222l1.245-0.563l0.76-1.3l0.161-1.506
			l0.001-1.17l-0.307-1.089l-0.421-0.59l-0.396-0.442l-0.583-0.312l-0.381-0.352l-0.834-0.139l-0.852-0.128l-0.714-0.126
			l-0.602-0.086l-0.799,0.129l-0.76,0.127l-0.751-0.046l-0.705-0.083l-0.961-0.168l-0.807-0.287l-0.893-0.577l-0.123-0.032H19.126z
			 M16.849,30.919l0.485-0.642l0.577-0.617l0.591-0.387l0.678-0.134c0,0,0.93,0.005,1.059,0.005c0.02,0.013,0.873,0.556,0.873,0.556
			l0.898,0.322l1.015,0.181l0.734,0.087l0.821,0.044l0.817-0.13l0.723-0.128l0.515,0.086l0.712,0.126l0.854,0.128
			c0,0,0.571,0.096,0.688,0.115c0.079,0.071,0.327,0.292,0.327,0.292l0.563,0.292l0.307,0.368l0.367,0.493l0.257,0.939l-0.01,1.078
			l-0.126,1.38c0,0-0.572,0.938-0.646,1.059c-0.121,0.057-1.033,0.479-1.033,0.479s-1.315,0.163-1.458,0.181
			c-0.127-0.067-1.457-0.77-1.457-0.77l-1.521-0.848l-1.403-0.199l-1.229,0.04l-1.65,0.043l-1.206-0.084l-1.202-0.453l-0.885-0.919
			c0,0-0.426-0.772-0.479-0.869c-0.003-0.103-0.035-1.043-0.039-1.151C16.419,31.781,16.849,30.919,16.849,30.919z"/>
	</g>
</g>
<g>
	
		<rect x="29.48" y="23.663" transform="matrix(-0.9941 -0.1084 0.1084 -0.9941 56.6007 52.6187)" stroke="#000000" stroke-width="0.25" width="0.5" height="2.216"/>
</g>
<g>
	
		<rect x="31.226" y="21.697" transform="matrix(-0.9918 -0.1278 0.1278 -0.9918 59.64 51.6539)" stroke="#000000" stroke-width="0.25" width="0.501" height="4.435"/>
</g>
<g>
	
		<rect x="32.653" y="24.669" transform="matrix(-0.9496 -0.3136 0.3136 -0.9496 56.1819 59.827)" stroke="#000000" stroke-width="0.25" width="0.5" height="1.453"/>
</g>
<g>
	
		<rect x="2.157" y="26.723" transform="matrix(-0.9621 -0.2726 0.2726 -0.9621 -0.1386 53.9265)" stroke="#000000" stroke-width="0.25" width="3.039" height="0.5"/>
</g>
<g>
	
		<rect x="0.151" y="28.966" transform="matrix(-0.9932 -0.1167 0.1167 -0.9932 1.7271 58.5327)" stroke="#000000" stroke-width="0.25" width="4.851" height="0.5"/>
</g>
<g>
	
		<rect x="3.53" y="29.853" transform="matrix(-0.1571 -0.9876 0.9876 -0.1571 -26.8237 40.3574)" stroke="#000000" stroke-width="0.25" width="0.563" height="3.545"/>
</g>
<g id="_x3C_F1Group_x3E_">
	<g>
		<polygon points="14.655,42.203 14.15,43.327 13.724,44.351 13.374,45.746 13.324,46.945 13.324,48.314 13.156,49.555 
			12.865,50.761 12.69,52.062 12.361,53.082 11.712,54.039 10.719,55.113 11.087,55.451 12.104,54.346 12.807,53.296 13.176,52.171 
			13.355,50.853 13.647,49.647 13.822,48.347 13.824,46.954 13.866,45.815 14.198,44.507 14.61,43.523 15.074,42.465 15.798,41.634 
			15.418,41.31 		"/>
	</g>
	<g>
		<polygon points="14.591,41.46 14.229,41.671 13.85,41.98 13.567,42.294 13.321,42.489 12.999,43.001 12.632,43.567 12.364,44.101 
			12.141,44.724 12.126,45.488 12.169,46.308 12.299,47.101 12.518,47.852 12.873,48.574 13.257,49.301 13.546,49.737 13.87,50.182 
			14.373,50.938 14.461,51.564 14.632,52.38 14.747,53.141 14.712,53.977 14.478,54.745 14.295,55.2 13.914,55.565 14.272,55.913 
			14.707,55.467 14.95,54.908 15.202,54.056 15.244,53.113 15.124,52.292 14.952,51.469 14.827,50.756 14.28,49.896 13.956,49.451 
			13.686,49.045 13.318,48.345 12.981,47.67 12.786,46.99 12.666,46.254 12.626,45.475 12.626,44.808 12.823,44.296 13.066,43.814 
			13.423,43.265 13.693,42.811 13.911,42.655 14.195,42.339 14.517,42.08 14.804,41.911 15.205,41.771 15.036,41.3 		"/>
	</g>
	<g>
		<polygon points="15.159,41.663 15.254,42.427 15.318,42.877 15.414,43.577 15.476,44.236 15.475,44.978 15.381,45.843 
			15.117,46.369 14.693,46.97 14.354,47.155 13.713,47.573 13.022,47.981 12.366,48.325 11.69,48.862 11.177,49.47 10.662,50.148 
			10.381,50.735 10.124,51.313 9.898,51.862 9.697,52.627 9.658,53.314 9.657,53.836 10.157,53.836 10.157,53.327 10.189,52.703 
			10.372,52.019 10.584,51.509 10.835,50.943 11.087,50.406 11.569,49.782 12.039,49.217 12.639,48.742 13.266,48.417 
			13.977,47.997 14.621,47.578 15.03,47.326 15.548,46.618 15.855,45.976 15.973,45.004 15.975,44.212 15.91,43.52 15.813,42.809 
			15.75,42.361 15.655,41.6 		"/>
	</g>
</g>
<g id="_x3C_F2Group_x3E_">
	<g>
		<polygon points="40.892,35.299 39.988,35.629 40.162,36.098 41.02,35.78 41.737,35.664 42.427,35.667 43.037,35.82 43.749,35.951 
			44.217,36.211 44.922,36.565 45.593,36.886 46.193,37.312 46.941,37.625 47.848,38.529 48.521,39.14 49.228,40.005 49.899,40.776 
			50.281,41.496 50.964,42.476 51.796,43.568 52.598,44.533 53.354,45.513 54.293,46.229 55.001,46.713 55.496,47.279 
			56.385,47.807 57.23,48.2 58.134,48.556 59.175,48.851 59.312,48.371 58.294,48.083 57.428,47.741 56.615,47.364 55.808,46.896 
			55.329,46.341 54.585,45.823 53.703,45.16 52.988,44.219 52.188,43.256 51.368,42.181 50.706,41.233 50.308,40.493 49.609,39.683 
			48.883,38.796 48.189,38.164 47.21,37.213 46.432,36.875 45.845,36.456 45.143,36.116 44.446,35.767 43.911,35.484 43.14,35.331 
			42.484,35.174 41.696,35.167 		"/>
	</g>
	<g>
		<polygon points="39.663,37.524 40.331,38.066 41.132,38.505 42.146,38.902 43.111,39.224 44.054,39.453 45.189,39.616 
			46.291,39.683 47.488,39.651 48.592,39.522 49.97,39.297 51.254,38.839 52.195,38.557 53.358,38.274 54.484,38.086 55.43,37.96 
			56.344,37.866 57.174,37.769 57.934,37.895 58.532,38.193 59.323,38.459 59.945,38.709 60.938,39.239 61.627,39.648 
			62.545,40.218 64.065,40.692 64.212,40.213 62.75,39.767 61.887,39.221 61.184,38.803 60.155,38.256 59.495,37.99 58.719,37.73 
			58.079,37.422 57.184,37.274 55.371,37.463 54.41,37.591 53.258,37.785 52.063,38.075 51.097,38.365 49.845,38.815 48.522,39.027 
			47.452,39.153 46.299,39.183 45.239,39.119 44.147,38.962 43.249,38.744 42.315,38.431 41.342,38.052 40.607,37.652 
			39.978,37.135 		"/>
	</g>
	<g>
		<polygon points="62.757,30.201 61.605,30.799 60.827,31.286 59.991,31.866 59.272,32.304 58.459,33.142 57.595,33.819 
			56.862,34.647 56.115,35.686 55.27,36.372 54.572,37.166 53.484,38.545 52.78,39.184 51.984,39.918 51.254,40.586 50.702,40.87 
			49.695,41.341 48.549,41.713 47.378,42.062 46.197,42.115 44.925,42.02 43.877,41.801 41.835,40.833 41.046,40.021 40.29,39.2 
			39.716,38.25 39.29,38.512 39.894,39.5 40.686,40.367 41.551,41.235 42.765,41.826 43.721,42.273 44.855,42.514 46.191,42.614 
			47.462,42.551 48.697,42.19 49.879,41.805 50.926,41.317 51.54,40.992 52.323,40.287 53.119,39.552 53.85,38.884 54.957,37.485 
			55.617,36.729 56.478,36.025 57.253,34.958 57.937,34.18 58.794,33.511 59.583,32.69 60.264,32.285 61.103,31.704 61.855,31.232 
			62.921,30.667 64.186,30.437 64.092,29.946 		"/>
	</g>
</g>
<g>
	<g>
		<polygon fill="#FF0000" stroke="#FF0000" stroke-width="0.5" points="4.688,1.49 4.533,2.925 4.144,4.858 4.27,6.815 4.805,8.56 
			5.55,9.829 6.683,11.273 8.324,12.279 11.375,13.511 12.988,14.377 14.762,14.74 16.534,15.078 18.322,15.807 19.771,16.349 
			21.281,16.891 22.949,17.819 24.136,19.058 24.877,20.613 25.052,21.694 25.18,23.426 24.985,25.271 24.47,26.911 23.571,28.554 
			22.776,30.327 22.255,31.4 21.718,33.052 21.45,34.151 21.059,35.631 20.727,37.404 20.657,38.515 20.723,40.026 21.191,41.639 
			21.737,42.635 22.255,43.704 23.178,45.401 24.294,46.291 25.548,47.174 26.934,48.058 28.125,48.74 29.455,49.357 30.957,50.098 
			32.083,50.577 33.407,51.054 34.697,51.268 36.181,51.667 37.541,52.134 38.848,52.606 39.766,53.313 40.791,53.812 
			41.669,54.463 42.44,55.126 43.455,55.757 44.533,56.742 45.374,57.609 46.93,59.614 47.17,60.054 47.607,59.812 47.346,59.339 
			45.751,57.282 44.881,56.383 43.755,55.36 42.735,54.724 41.98,54.073 41.048,53.385 40.024,52.888 39.083,52.171 37.707,51.663 
			36.326,51.189 34.802,50.78 33.532,50.572 32.266,50.111 31.165,49.643 29.67,48.906 28.354,48.296 27.192,47.63 25.826,46.759 
			24.591,45.888 23.551,45.083 22.7,43.475 22.181,42.405 21.65,41.448 21.212,39.945 21.156,38.52 21.222,37.465 21.546,35.741 
			21.935,34.274 22.199,33.188 22.718,31.586 23.229,30.538 24.019,28.775 24.929,27.105 25.472,25.372 25.678,23.433 
			25.548,21.633 25.349,20.461 24.541,18.774 23.25,17.426 21.487,16.437 19.943,15.88 18.504,15.341 16.674,14.6 14.858,14.25 
			13.155,13.912 11.586,13.059 8.546,11.833 7.008,10.904 5.962,9.547 5.259,8.358 4.758,6.724 4.638,4.891 5.027,2.999 
			5.162,1.624 5.597,0.764 5.147,0.545 		"/>
	</g>
	<g>
		<path fill="#FF0000" stroke="#FF0000" stroke-width="0.5" d="M23.146,1.973l-1.063,1.436l-0.655,0.877l-0.675,1.246l-0.724,1.424
			l-0.837,1.258l-0.734,1.371l-0.598,1.368l-0.776,1.397l-0.784,1.345l-0.735,1.715l-0.529,1.429l-0.465,1.639l-0.14,1.532
			l0.198,1.474l0.264,1.364l0.537,1.393l0.596,1.297l1.173,1.093l1.262,0.96l1.646,1.153l0.923,0.612l1.591,0.373l1.851,0.86
			l1.216,0.351l1.001,0.207l1.335,0.528l1.612,0.349l1.337,0.528l1.307,0.539l1.331,0.92c0.378,0.329,1.028,0.925,1.18,1.149
			l0.658,0.95l0.495,1.296l0.315,1.711l-0.198,1.129l-0.39,1.846l-0.83,1.555l-0.592,1.187l-1.022,1.31l-1.305,1.544l-0.93,1.299
			l-1.176,1.548l-0.978,1.208l-0.862,1.229l-1.164,1.33l-0.997,1.366l-0.615,1.326l-0.532,1.436l-0.337,1.448l-0.071,1.463l0,1.228
			l0.267,1.397l0.283,0.602l0.45-0.219L25,63.807l-0.242-1.288l0.004-1.168l0.065-1.406l0.322-1.373l0.515-1.388l0.583-1.266
			l0.958-1.307l1.167-1.334l0.868-1.236l0.973-1.2l1.185-1.56l0.921-1.289l1.299-1.536l1.055-1.359l0.616-1.224l0.851-1.614
			l0.415-1.922l0.2-1.227l-0.329-1.842l-0.537-1.395c-0.029-0.054-0.682-0.994-0.682-0.994c-0.236-0.352-1.182-1.173-1.289-1.266
			l-1.398-0.961l-1.357-0.565l-1.38-0.542l-1.612-0.349l-1.337-0.528l-1.024-0.214l-1.162-0.333l-1.865-0.864l-1.558-0.354
			L20.39,28.33l-1.633-1.144l-1.238-0.94l-1.098-0.998l-0.531-1.203l-0.519-1.336l-0.25-1.308l-0.195-1.404l0.133-1.43l0.45-1.574
			l0.518-1.399l0.717-1.676l0.772-1.322l0.79-1.423l0.6-1.371l0.713-1.333l0.839-1.262l0.736-1.443l0.653-1.209l0.636-0.847
			l1.049-1.419l1.428-1.603l-0.373-0.332L23.146,1.973z"/>
	</g>
	<g>
		
			<rect x="12.748" y="-1.91" transform="matrix(-0.1173 -0.9931 0.9931 -0.1173 11.4807 16.329)" fill="#FF0000" stroke="#FF0000" stroke-width="0.5" width="0.5" height="9.945"/>
	</g>
	<g>
		
			<rect x="12.747" y="6.701" transform="matrix(-0.172 -0.9851 0.9851 -0.172 6.0534 23.7247)" fill="#FF0000" stroke="#FF0000" stroke-width="0.5" width="0.5" height="5.235"/>
	</g>
	<g>
		
			<rect x="19.652" y="16.743" transform="matrix(-0.1016 -0.9948 0.9948 -0.1016 1.7284 42.1633)" fill="#FF0000" stroke="#FF0000" stroke-width="0.5" width="0.5" height="7.116"/>
	</g>
	<g>
		
			<rect x="21.05" y="21.652" transform="matrix(-0.1485 -0.9889 0.9889 -0.1485 0.6492 48.723)" fill="#FF0000" stroke="#FF0000" stroke-width="0.5" width="0.5" height="4.86"/>
	</g>
	<g>
		
			<rect x="28.217" y="31.154" transform="matrix(-0.0283 -0.9996 0.9996 -0.0283 -6.6324 65.3917)" fill="#FF0000" stroke="#FF0000" stroke-width="0.5" width="0.5" height="9.531"/>
	</g>
	<g>
		
			<rect x="29.572" y="39.187" transform="matrix(-0.0351 -0.9994 0.9994 -0.0351 -12.2259 74.4405)" fill="#FF0000" stroke="#FF0000" stroke-width="0.5" width="0.5" height="7.871"/>
	</g>
	<g>
		
			<rect x="29.559" y="56.014" transform="matrix(-1 -0.0083 0.0083 -1 69.4884 112.8164)" fill="#FF0000" stroke="#FF0000" stroke-width="0.5" width="10.837" height="0.5"/>
	</g>
	<g>
		
			<rect x="27.983" y="61.597" transform="matrix(-0.9996 -0.0271 0.0271 -0.9996 70.8887 124.6541)" fill="#FF0000" stroke="#FF0000" stroke-width="0.5" width="16.612" height="0.5"/>
	</g>
</g>
<g id="_x3C_Bubs_x3E_">
	<circle fill="#FFFFFF" stroke="#000000" stroke-width="0.5" cx="9.674" cy="28.105" r="1.821"/>
	<ellipse fill="#FFFFFF" stroke="#000000" stroke-width="0.5" cx="14.781" cy="37.25" rx="1.571" ry="1.535"/>
	<circle fill="#FFFFFF" stroke="#000000" stroke-width="0.5" cx="35.138" cy="31.142" r="1.357"/>
	<circle stroke="#000000" stroke-width="0.5" cx="13.389" cy="32.392" r="0.893"/>
	<circle stroke="#000000" stroke-width="0.5" cx="28.746" cy="39.82" r="0.893"/>
</g>
</svg>
