<?xml version="1.0" encoding="utf-8"?>
<!-- Generator: Adobe Illustrator 12.0.0, SVG Export Plug-In . SVG Version: 6.00 Build 51448)  -->
<!DOCTYPE svg PUBLIC "-//W3C//DTD SVG 1.1//EN" "http://www.w3.org/Graphics/SVG/1.1/DTD/svg11.dtd" [
	<!ENTITY ns_svg "http://www.w3.org/2000/svg">
	<!ENTITY ns_xlink "http://www.w3.org/1999/xlink">
]>

    <svg version="1.1" xmlns="&ns_svg;" xmlns:xlink="&ns_xlink;" width="64" height="65" viewBox="0 0 64 65"
	 overflow="visible" enable-background="new 0 0 62.102 35.896" xml:space="preserve">

<g id="Layer_3">
	<g >
		<g>
			<path fill="#0000FF" d="M37.581,1.048c7.009,2.564,11.994,9.124,11.994,16.813c0,9.922-8.302,17.967-18.542,17.967
				s-18.541-8.045-18.541-17.967c0-1.645,0.228-3.238,0.655-4.751c1.296-4.588,4.421-8.444,8.569-10.785
				c2.738-1.544,5.922-2.429,9.318-2.429C33.339-0.104,35.547,0.303,37.581,1.048z"/>
			<path fill="#000DF5" d="M21.526,2.006c-4.262,2.405-7.449,6.417-8.745,11.007c-0.443,1.572-0.668,3.203-0.668,4.848
				c0,10.11,8.488,18.335,18.922,18.335c10.434,0,18.922-8.225,18.922-18.335c0-7.584-4.918-14.48-12.239-17.158l0,0
				c-2.133-0.78-4.381-1.176-6.682-1.176C27.688-0.474,24.4,0.385,21.526,2.006z M12.874,17.861c0-1.579,0.216-3.145,0.642-4.654
				c1.243-4.404,4.302-8.254,8.393-10.563c2.759-1.556,5.915-2.379,9.126-2.379c2.208,0,4.366,0.379,6.414,1.127l0,0
				c7.026,2.57,11.746,9.189,11.746,16.469c0,9.703-8.146,17.598-18.161,17.598C21.02,35.459,12.874,27.564,12.874,17.861z"/>
		</g>
		<g>
			<g>
				<polygon fill="#00E71D" points="38.655,1.495 37.892,1.68 37.764,2.664 37.065,3.033 37.001,4.017 36.685,4.756 35.606,5.125
					34.653,5.74 34.018,5.371 33.51,5.925 32.684,6.786 32.303,7.463 31.479,7.218 30.716,6.295 30.335,5.433 31.288,5.248
					31.224,4.634 30.526,3.956 29.954,2.356 29.002,1.003 27.223,1.126 27.097,0.51 26.017,0.88 24.43,1.249 23.159,2.05
					23.032,2.788 22.271,2.418 21.128,2.664 20.684,3.526 20.811,4.141 23.223,4.141 22.716,4.264 21.509,4.634 20.62,5.187
					19.985,6.233 19.794,7.033 20.303,7.894 21.065,8.694 22.08,9.37 22.969,10.048 24.113,10.171 24.557,9.555 24.557,8.632
					24.43,7.833 24.621,7.218 25.002,7.402 25.446,8.14 26.271,8.571 27.097,8.263 27.669,9.37 28.176,9.986 29.256,10.662
					29.002,10.909 28.431,11.401 27.923,11.155 27.414,10.662 26.652,10.785 26.208,11.401 27.351,11.893 26.97,12.139
					26.208,11.955 25.954,12.262 25.319,12.878 25.002,13.308 24.303,13.554 23.668,14.416 23.032,15.278 22.526,15.523 22.652,17
					22.652,16.569 22.271,15.892 21.636,15.523 20.874,15.646 20.24,15.769 19.35,15.769 18.651,16.261 18.588,17.062
					18.588,17.616 19.223,18.229 20.049,18.416 20.24,18.846 21.065,19.523 21.763,20.137 22.652,21.123 23.795,21.123
					24.557,21.245 25.446,21.307 26.652,21.615 27.605,22.292 28.557,23.031 28.938,24.199 29.637,24.445 30.97,24.813
					32.43,25.184 32.43,25.861 31.795,27.091 30.78,28.69 29.954,29.429 28.812,30.106 27.669,31.028 27.414,31.89 26.78,32.197
					26.589,32.75 25.954,33.121 25.192,33.552 24.557,34.72 23.032,34.166 23.159,33.244 23.159,32.689 23.287,32.012
					23.413,31.336 23.668,30.659 24.176,30.167 24.365,29.244 24.493,28.26 24.303,27.397 23.795,26.906 22.969,26.229
					22.589,25.306 22.271,24.26 22.271,23.522 22.843,23.031 23.223,22.661 23.223,22.106 22.398,21.123 21.382,20.261
					20.556,19.585 19.731,19.154 18.906,18.906 18.27,18.661 17.699,18.416 17.382,17.738 16.937,16.939 16.492,16.199
					16.112,15.523 15.54,14.723 15.096,14.293 14.779,14.601 15.032,15.523 15.731,16.939 15.032,16.446 14.588,15.585
					13.889,14.723 13.064,13.431 13.572,11.893 14.207,10.355 15.032,8.694 16.049,7.094 17.318,5.556 18.842,4.263 20.175,3.033
					22.271,1.865 24.874,0.696 26.652,0.141 28.812,-0.289 30.716,-0.35 32.239,-0.289 34.4,0.019 36.049,0.51 37.637,1.064 				"/>
				<path fill="#00E71D" d="M28.799-0.658L26.576-0.22l-1.818,0.564L22.111,1.53l-2.165,1.207l-1.367,1.26l-1.512,1.282L15.75,6.863
					L14.707,8.5l-0.844,1.695l-0.645,1.562l-0.571,1.725l0.918,1.437l0.723,0.896l0.444,0.878l1.99,1.403l-1.347-2.73
					c0,0-0.051-0.189-0.099-0.371c0.011,0.017,0.521,0.741,0.521,0.741l0.36,0.644l0.449,0.746l0.438,0.79l0.365,0.783l0.703,0.302
					l0.649,0.251l0.854,0.256l0.758,0.404l0.759,0.633l1.011,0.857c0,0,0.56,0.675,0.696,0.836c0,0.098,0,0.166,0,0.271
					c-0.111,0.107-0.27,0.263-0.27,0.263l-0.683,0.588v0.955l0.333,1.097l0.428,1.041l0.898,0.737c0,0,0.293,0.285,0.405,0.395
					c0.033,0.149,0.134,0.603,0.154,0.693c-0.014,0.107-0.119,0.922-0.119,0.922s-0.128,0.618-0.163,0.784
					c-0.114,0.113-0.486,0.474-0.486,0.474l-0.282,0.752l-0.144,0.738l-0.127,0.677l-0.006,0.621l-0.164,1.164l2.123,0.771
					c0,0,0.655-1.204,0.741-1.363c0.145-0.081,0.667-0.379,0.667-0.379l0.759-0.441c0,0,0.131-0.381,0.186-0.536
					c0.17-0.083,0.644-0.313,0.644-0.313s0.219-0.741,0.269-0.908c0.153-0.123,1.053-0.851,1.053-0.851l1.097-0.645l0.924-0.816
					l1.042-1.643l0.693-1.337v-1.052l-1.746-0.439l-1.326-0.367c0,0-0.304-0.107-0.496-0.175c-0.082-0.253-0.359-1.103-0.359-1.103
					l-1.043-0.81l-1.023-0.728l-1.276-0.324l-0.959-0.072l-0.726-0.12c0,0-0.778-0.004-1.032-0.006
					c-0.173-0.189-0.776-0.857-0.776-0.857l-0.729-0.646c0,0-0.651-0.534-0.766-0.631c-0.048-0.106-0.231-0.522-0.231-0.522
					s-0.746-0.166-0.907-0.201c-0.095-0.093-0.317-0.308-0.445-0.433c0-0.16,0-0.4,0-0.4s0.031-0.396,0.049-0.603
					c0.147-0.104,0.344-0.243,0.456-0.32c0.184,0,0.766,0,0.766,0l0.709-0.131c0,0,0.427-0.069,0.611-0.099
					c0.131,0.076,0.324,0.188,0.426,0.247c0.057,0.101,0.165,0.293,0.25,0.442c0.015,0.179,0.037,0.431,0.037,0.431L23.032,17
					v-0.523c0,0-0.051-0.092-0.051-0.093c-0.027-0.308-0.04-0.462-0.055-0.642c0.138-0.067,0.362-0.176,0.362-0.176
					s1.147-1.556,1.257-1.705c0.157-0.055,0.698-0.246,0.698-0.246l0.386-0.524l0.594-0.568c0,0,0.064-0.077,0.128-0.154
					c0.225,0.054,0.689,0.167,0.689,0.167l1.097-0.707c0,0-1.017-0.439-1.354-0.583c0.042-0.059,0.059-0.082,0.088-0.122
					c0.134-0.021,0.255-0.042,0.411-0.066c0.146,0.142,0.413,0.4,0.413,0.4l0.795,0.384l0.764-0.658l0.604-0.584
					c0,0-1.33-0.832-1.423-0.892c-0.066-0.079-0.469-0.568-0.469-0.568l-0.528-1.042l-0.154-0.3c0,0-0.775,0.29-0.985,0.368
					c-0.175-0.091-0.46-0.24-0.578-0.302c-0.083-0.138-0.447-0.743-0.447-0.743l-0.888-0.43L24.04,7.805l0.141,0.883
					c0,0-0.003,0.574-0.004,0.749c-0.064,0.088-0.145,0.2-0.247,0.341c-0.255-0.027-0.671-0.073-0.81-0.087
					c-0.139-0.107-0.803-0.612-0.803-0.612l-1.036-0.691l-0.698-0.746c0,0-0.28-0.487-0.383-0.667
					c0.042-0.174,0.126-0.528,0.145-0.606c0.05-0.082,0.484-0.797,0.559-0.921c0.121-0.075,0.699-0.436,0.77-0.479
					c0.089-0.027,1.158-0.354,1.158-0.354l0.486-0.117L23.225,3.77c0,0-1.627,0-2.101,0c-0.02-0.097-0.027-0.132-0.041-0.195
					c0.071-0.135,0.214-0.415,0.305-0.59c0.218-0.047,0.664-0.143,0.834-0.18c0.17,0.086,1.102,0.537,1.102,0.537
					s0.15-0.875,0.185-1.071c0.211-0.134,0.985-0.621,1.074-0.677c0.117-0.027,1.524-0.354,1.524-0.354s0.375-0.128,0.703-0.239
					c0.018,0.086,0.107,0.518,0.107,0.518s1.558-0.107,1.895-0.131c0.18,0.257,0.753,1.071,0.8,1.138
					c0.031,0.088,0.583,1.634,0.583,1.634s0.521,0.505,0.664,0.644c0.006,0.05,0.007,0.076,0.016,0.151
					C30.594,5.007,29.8,5.16,29.8,5.16l0.587,1.325l0.867,1.051l1.235,0.369c0,0,0.468-0.83,0.507-0.902
					c0.06-0.063,0.794-0.828,0.794-0.828s0.155-0.171,0.302-0.331c0.179,0.104,0.571,0.333,0.571,0.333s1.04-0.673,1.113-0.72
					c0.083-0.028,1.195-0.408,1.195-0.408l0.406-0.948c0,0,0.039-0.586,0.055-0.842c0.199-0.106,0.684-0.362,0.684-0.362
					s0.083-0.643,0.119-0.921c0.227-0.054,1.592-0.385,1.592-0.385l-2.038-0.865l-1.613-0.563l-1.665-0.498l-2.218-0.32
					l-1.561-0.065L28.799-0.658z M28.888,0.073l1.841-0.055l1.495,0.061l2.12,0.304l1.593,0.48l1.571,0.548
					c0,0,0.03,0.013,0.032,0.014c-0.009,0.058-0.098,0.759-0.13,1.005c-0.196,0.104-0.712,0.376-0.712,0.376
					s-0.065,1.018-0.073,1.125c-0.033,0.076-0.153,0.357-0.228,0.53c-0.232,0.079-0.966,0.33-0.966,0.33s-0.54,0.35-0.791,0.511
					c-0.188-0.109-0.698-0.406-0.698-0.406L33.225,5.68l-0.852,0.89c0,0-0.145,0.257-0.255,0.452
					c-0.191-0.056-0.317-0.094-0.417-0.124c-0.113-0.138-0.603-0.729-0.655-0.795c-0.018-0.04-0.088-0.198-0.175-0.397
					c0.246-0.047,0.83-0.161,0.83-0.161l-0.11-1.079c0,0-0.63-0.61-0.732-0.709c-0.052-0.145-0.56-1.566-0.56-1.566L29.194,0.62
					c0,0-1.221,0.084-1.662,0.114c-0.031-0.147-0.073-0.352-0.078-0.376C28.082,0.233,28.888,0.073,28.888,0.073z M22.775,2.044
					c-0.005,0.025-0.018,0.104-0.033,0.19c-0.09-0.044-0.141-0.068-0.189-0.091C22.57,2.135,22.727,2.065,22.775,2.044z
					 M13.934,12.006l0.625-1.514l0.816-1.638l0.997-1.567l1.243-1.5l1.477-1.245c0,0,1.017-0.939,1.222-1.127
					c-0.016,0.03-0.031,0.059-0.031,0.059l0.214,1.037c0,0,0.476,0,0.504,0c-0.264,0.163-0.665,0.414-0.665,0.414l-0.711,1.17
					l-0.238,0.996l0.583,0.986l0.812,0.867l1.08,0.73l0.955,0.728l1.476,0.159l0.644-0.89v-1.04c0,0-0.098-0.637-0.119-0.772
					c0.002-0.004,0.005-0.014,0.006-0.018c0.131,0.219,0.346,0.575,0.346,0.575l1.074,0.56c0,0,0.427-0.159,0.666-0.248
					c0.165,0.319,0.417,0.808,0.417,0.808l0.589,0.728c0,0,0.414,0.259,0.73,0.458c-0.072,0.062-0.152,0.13-0.277,0.239
					c-0.111-0.053-0.179-0.087-0.223-0.108c-0.073-0.071-0.603-0.584-0.603-0.584l-1.113,0.18l-0.801,1.109
					c0,0,0.187,0.08,0.308,0.132c-0.009,0.011-0.282,0.344-0.282,0.344l-0.606,0.585c0,0-0.197,0.262-0.288,0.384
					c-0.156,0.055-0.699,0.247-0.699,0.247s-1.192,1.617-1.284,1.741c-0.118,0.057-0.654,0.316-0.654,0.316s0.004,0.044,0.006,0.076
					c-0.148-0.086-0.418-0.244-0.418-0.244l-0.901,0.146l-0.647,0.125L19.227,15.4l-0.941,0.663l-0.079,0.97l-0.001,0.736
					c0,0,0.795,0.769,0.812,0.785l-0.607-0.236c0,0-0.271-0.116-0.426-0.185c-0.079-0.168-0.257-0.548-0.257-0.548l-0.456-0.824
					l-0.452-0.748l-0.375-0.667l-0.592-0.833l-0.489-0.481l-0.27-0.261l-0.743,0.72c0,0,0.082,0.296,0.089,0.322
					c-0.114-0.143-0.253-0.316-0.253-0.316s-0.564-0.887-0.709-1.113C13.565,13.123,13.934,12.006,13.934,12.006z M19.127,18.589
					c0.001,0,0.423,0.094,0.648,0.144c0.014,0.029,0.015,0.031,0.027,0.063C19.656,18.751,19.272,18.633,19.127,18.589z
					 M23.795,21.491l0.699,0.119l0.924,0.065c0,0,0.941,0.244,1.066,0.277c0.102,0.073,0.895,0.637,0.895,0.637
					s0.702,0.544,0.85,0.658c0.058,0.177,0.403,1.236,0.403,1.236l0.875,0.307l1.359,0.378c0,0,0.814,0.205,1.183,0.299
					c0,0.149,0,0.236,0,0.306c-0.07,0.138-0.593,1.153-0.593,1.153s-0.921,1.445-0.973,1.526c-0.068,0.063-0.787,0.703-0.787,0.703
					l-1.083,0.636l-1.279,1.026c0,0-0.179,0.604-0.24,0.814c-0.175,0.084-0.626,0.304-0.626,0.304s-0.144,0.416-0.196,0.568
					c-0.158,0.092-0.513,0.299-0.513,0.299l-0.853,0.484c0,0-0.351,0.646-0.529,0.973c-0.302-0.109-0.645-0.234-0.925-0.337
					c0.038-0.273,0.087-0.632,0.087-0.632l0.003-0.603l0.122-0.61l0.127-0.675c0,0,0.162-0.422,0.207-0.54
					c0.092-0.089,0.53-0.514,0.53-0.514l0.214-1.032l0.14-1.072l-0.229-1.03l-0.587-0.568c0,0-0.655-0.54-0.776-0.639
					c-0.058-0.142-0.346-0.839-0.346-0.839s-0.262-0.867-0.29-0.961c0-0.07,0-0.338,0-0.52c0.154-0.134,0.444-0.383,0.444-0.383
					l0.508-0.492v-0.837c0,0-0.253-0.304-0.406-0.484C23.495,21.491,23.795,21.491,23.795,21.491z"/>
			</g>
			<g>
				<polygon fill="#00E71D" points="25.446,3.648 26.843,4.264 26.843,4.757 27.097,5.248 28.176,5.433 26.78,5.556 27.223,6.479
					26.589,7.094 25.954,6.234 24.621,5.802 25.128,5.064 25.764,5.003 				"/>
				<path fill="#00E71D" d="M25.296,4.677c-0.09,0.009-0.385,0.037-0.385,0.037l-0.884,1.286c0,0,1.494,0.483,1.689,0.545
					c0.112,0.154,0.824,1.119,0.824,1.119l1.142-1.106c0,0-0.221-0.458-0.329-0.681c0.407-0.037,0.857-0.076,0.857-0.076
					l0.032-0.732c0,0-0.634-0.108-0.891-0.152c-0.057-0.111-0.093-0.182-0.128-0.248c0-0.118,0-0.643,0-0.643l-2.32-1.022
					C24.904,3.004,25.203,4.278,25.296,4.677z M25.988,4.293c0.237,0.104,0.346,0.153,0.474,0.209c0,0.126,0,0.341,0,0.341
					s0.112,0.218,0.183,0.354c-0.132,0.012-0.429,0.038-0.436,0.038C26.182,5.126,26.061,4.605,25.988,4.293z M26.23,5.327
					c0,0-0.011-0.052-0.018-0.073C26.23,5.288,26.64,6.14,26.766,6.4c-0.054,0.052-0.064,0.062-0.128,0.124
					c-0.18-0.245-0.445-0.604-0.445-0.604s-0.584-0.189-0.979-0.316c0.065-0.094,0.09-0.13,0.133-0.191
					C25.53,5.396,26.23,5.327,26.23,5.327z"/>
			</g>
			<g>
				<polygon fill="#00E213" points="41.828,9.555 41.448,9.802 41.638,10.601 42.019,11.031 41.828,11.585 42.464,11.524
					42.971,10.97 42.4,10.724 				"/>
				<path fill="#00E71D" d="M41.018,9.635l0.271,1.137c0,0,0.188,0.214,0.301,0.34c-0.057,0.164-0.309,0.896-0.309,0.896
					l1.369-0.132l0.952-1.039c0,0-0.764-0.329-0.918-0.396c-0.097-0.198-0.7-1.432-0.7-1.432L41.018,9.635z"/>
			</g>
			<g>
				<polygon fill="#00E71D" points="40,15.114 40.198,14.586 40.332,14.175 40.585,14.003 41.081,13.897 41.577,13.909
					41.836,13.442 41.844,13.088 41.668,12.669 41.614,12.431 42.606,12.337 43.163,12.35 43.662,12.125 44.045,11.661
					44.681,10.967 44.99,10.974 45.598,11.342 46.203,11.89 46.633,12.018 47.071,11.792 47.448,11.505 48.079,11.106 48.145,10.99
					48.672,12.126 48.833,13.016 49.121,13.851 49.35,14.626 48.044,14.89 47.351,15.406 46.336,13.963 45.661,13.769
					45.456,14.533 45.745,15.309 44.979,13.872 44.243,13.558 43.371,13.774 42.93,14.177 42.055,14.571 41.668,15.153
					40.921,15.372 40.243,15.296 				"/>
				<path fill="#00E71D" d="M47.789,10.848c-0.123,0.078-0.548,0.348-0.548,0.348l-0.405,0.305c0,0-0.128,0.064-0.238,0.121
					c-0.089-0.028-0.136-0.041-0.197-0.06c-0.104-0.092-0.542-0.49-0.542-0.49l-0.756-0.465l-0.589-0.013l-0.753,0.822
					c0,0-0.256,0.311-0.34,0.411c-0.092,0.041-0.246,0.11-0.337,0.152c-0.126-0.003-0.468-0.011-0.468-0.011l-1.467,0.138
					l0.148,0.646c0,0,0.123,0.299,0.165,0.403c-0.003,0.063-0.004,0.121-0.006,0.192c-0.029,0.053-0.054,0.097-0.105,0.19
					c-0.13-0.003-0.307-0.008-0.307-0.008L40.43,13.66l-0.421,0.285l-0.173,0.531l-0.289,0.765l0.546,0.41l0.862,0.097l0.959-0.28
					c0,0,0.316-0.476,0.401-0.606c0.157-0.072,0.832-0.373,0.832-0.373s0.315-0.289,0.415-0.38c0.127-0.031,0.487-0.121,0.648-0.161
					c0.135,0.057,0.354,0.151,0.491,0.209c0.104,0.196,0.706,1.322,0.706,1.322l0.696-0.295c0,0-0.189-0.508-0.248-0.667
					c0.019-0.071,0.036-0.143,0.077-0.284c0.081,0.023,0.113,0.032,0.166,0.047c0.131,0.186,1.165,1.657,1.165,1.657
					s0.833-0.619,0.944-0.703c0.148-0.03,1.621-0.328,1.621-0.328l-0.341-1.156l-0.293-0.851l-0.156-0.883l-0.863-1.856
					C48.176,10.159,47.797,10.833,47.789,10.848z M41.118,14.267c0.076,0.001,0.651,0.016,0.673,0.017
					c-0.004,0.005-0.27,0.408-0.367,0.555c-0.158,0.046-0.439,0.128-0.539,0.157c-0.084-0.009-0.254-0.029-0.418-0.046
					c0.044-0.118,0.09-0.237,0.09-0.237s0.059-0.185,0.101-0.308c0.041-0.028,0.052-0.036,0.082-0.057
					C40.836,14.327,41.056,14.281,41.118,14.267z M43.906,12.423l0.438-0.532c0,0,0.35-0.383,0.504-0.552c0.016,0,0.017,0,0.029,0
					c0.129,0.078,0.521,0.315,0.521,0.315l0.61,0.562l0.664,0.199l0.579-0.297l0.435-0.322c0,0,0.16-0.103,0.32-0.203
					c0.144,0.307,0.278,0.597,0.3,0.643c0.016,0.083,0.153,0.845,0.153,0.845l0.302,0.889c0,0,0.056,0.188,0.11,0.378
					c-0.385,0.077-0.989,0.199-0.989,0.199s-0.257,0.191-0.442,0.33c-0.273-0.389-0.864-1.229-0.864-1.229l-1.183-0.339
					c0,0-0.09,0.336-0.096,0.357c-0.02-0.034-0.042-0.078-0.042-0.078l-0.979-0.417l-1.095,0.271c0,0-0.396,0.361-0.469,0.428
					c-0.099,0.045-0.885,0.397-0.906,0.407c0.01-0.017,0.406-0.736,0.406-0.736l0.015-0.519c0,0-0.071-0.169-0.112-0.266
					c0.263-0.025,0.527-0.05,0.527-0.05l0.599,0.017L43.906,12.423z"/>
			</g>
			<g>
				<polygon fill="#00E71D" points="44.368,30.414 43.923,28.875 44.305,27.891 44.305,26.844 43.86,25.552 43.86,24.076
					43.478,23.399 42.464,23.338 40.749,23.399 39.542,23.092 38.716,22.292 38.082,20.816 38.082,20.077 38.589,19.461
					38.716,18.906 39.16,18.477 39.987,18.045 40.305,17.37 40.367,16.939 41.383,16.877 42.273,16.754 43.226,16.508
					44.115,16.446 44.622,16.877 45.194,17.799 45.764,18.229 46.275,18.784 46.907,18.846 47.542,18.661 48.304,18.538
					48.813,18.353 49.321,18.6 49.574,18.6 49.448,19.954 49.383,21.429 48.875,22.969 48.368,24.199 47.924,25.244 47.415,26.475
					46.845,27.215 46.401,28.198 45.702,28.999 				"/>
				<path fill="#00E71D" d="M43.198,16.139l-1.022,0.258l-0.846,0.114l-1.294,0.077c0,0-0.089,0.595-0.101,0.676
					c-0.032,0.068-0.174,0.371-0.241,0.516c-0.169,0.089-0.762,0.397-0.762,0.397l-0.563,0.544c0,0-0.104,0.456-0.131,0.576
					c-0.088,0.105-0.538,0.649-0.538,0.649v0.941l0.694,1.613l0.952,0.921l1.36,0.348l1.771-0.064c0,0,0.509,0.032,0.769,0.049
					c0.091,0.16,0.183,0.324,0.233,0.415c0,0.166,0,1.441,0,1.441s0.409,1.189,0.445,1.293c0,0.1,0,0.81,0,0.919
					c-0.043,0.111-0.4,1.035-0.4,1.035l0.663,2.295l1.796-1.907l0.744-0.85c0,0,0.416-0.925,0.449-0.995
					c0.048-0.064,0.575-0.745,0.575-0.745l0.525-1.275l0.444-1.041l0.509-1.234l0.532-1.611l0.067-1.526l0.162-1.738
					c0,0-0.506,0-0.58,0c-0.115-0.055-0.578-0.279-0.578-0.279l-0.661,0.241l-0.691,0.104c0,0-0.492,0.141-0.609,0.176
					c-0.086-0.009-0.266-0.027-0.412-0.041c-0.129-0.14-0.409-0.446-0.409-0.446s-0.472-0.361-0.566-0.433
					c-0.063-0.103-0.565-0.915-0.565-0.915l-0.675-0.571L43.198,16.139z M41.406,17.246l0.92-0.127l0.997-0.254
					c0,0,0.45-0.029,0.657-0.042c0.123,0.104,0.289,0.245,0.345,0.293c0.056,0.089,0.577,0.933,0.577,0.933l0.628,0.473l0.555,0.616
					l0.859,0.083l0.708-0.206l0.715-0.112c0,0,0.253-0.088,0.42-0.147c0.149,0.073,0.371,0.179,0.373,0.181
					c-0.037,0.389-0.093,0.984-0.093,0.984s-0.059,1.353-0.063,1.445c-0.029,0.089-0.492,1.49-0.492,1.49l-0.498,1.205l-0.443,1.045
					c0,0-0.456,1.104-0.49,1.188c-0.055,0.07-0.569,0.732-0.569,0.732S46.113,27.912,46.073,28
					c-0.064,0.076-0.662,0.759-0.662,0.759s-0.468,0.499-0.861,0.913c-0.11-0.379-0.193-0.672-0.225-0.781
					c0.067-0.177,0.36-0.935,0.36-0.935v-1.173c0,0-0.408-1.188-0.445-1.293c0-0.109,0-1.51,0-1.51l-0.526-0.938l-1.227-0.075
					c0,0-1.588,0.057-1.695,0.059c-0.09-0.022-0.894-0.229-1.052-0.267c-0.112-0.11-0.616-0.597-0.701-0.679
					c-0.05-0.116-0.524-1.222-0.575-1.34c0-0.098,0-0.381,0-0.536c0.117-0.141,0.479-0.582,0.479-0.582s0.09-0.394,0.121-0.531
					c0.096-0.093,0.274-0.265,0.329-0.317c0.085-0.045,0.888-0.464,0.888-0.464l0.395-0.836c0,0,0.018-0.13,0.026-0.187
					C41,17.27,41.406,17.246,41.406,17.246z"/>
			</g>
		</g>
	</g>
</g>
</svg>