<?xml version="1.0" encoding="utf-8"?>
<!-- Generator: Adobe Illustrator 12.0.0, SVG Export Plug-In . SVG Version: 6.00 Build 51448)  -->
<!DOCTYPE svg PUBLIC "-//W3C//DTD SVG 1.1//EN" "http://www.w3.org/Graphics/SVG/1.1/DTD/svg11.dtd" [
	<!ENTITY ns_svg "http://www.w3.org/2000/svg">
	<!ENTITY ns_xlink "http://www.w3.org/1999/xlink">
]>
<svg  version="1.1" id="Layer_1" xmlns="&ns_svg;" xmlns:xlink="&ns_xlink;" width="64.107" height="64.11"
	 viewBox="0 0 64.107 64.11" overflow="visible" enable-background="new 0 0 64.107 64.11" xml:space="preserve">
<g>
	<g>
		<path fill="#FF0000" stroke="#FF0000" stroke-width="0.25" d="M21.271,5.303c0,2.856,2.455,5.179,5.473,5.179
			s5.473-2.323,5.473-5.179c0-2.855-2.456-5.178-5.473-5.178S21.271,2.448,21.271,5.303z M22.465,5.303
			c0-2.232,1.919-4.048,4.279-4.048c2.36,0,4.278,1.816,4.278,4.048c0,2.233-1.918,4.049-4.278,4.049
			C24.384,9.352,22.465,7.536,22.465,5.303z"/>
	</g>
	<g>
		<path fill="#FF0000" stroke="#FF0000" stroke-width="0.25" d="M38.692,19.37c0,0,14.321,39.901,14.672,40.878
			c-0.722,0.283-3.021,1.189-3.743,1.475c-0.476-0.913-12.199-23.47-12.199-23.47l-3.974,6.854c0,0-4.288,16.754-4.491,17.547
			c-0.646,0.021-3.216,0.111-4.196,0.146c0.212-1.271,3.468-20.786,3.468-20.786l2.558-6.483l-1.12-0.392l-2.586,6.591L23.355,63.98
			l6.55-0.23c0,0,4.627-18.085,4.665-18.229c0.063-0.11,2.03-3.504,2.793-4.821c0.931,1.789,11.682,22.475,11.682,22.475l5.81-2.291
			l-15.03-41.876L38.692,19.37z"/>
	</g>
	<g>
		<path fill="#FF0000" stroke="#FF0000" stroke-width="0.25" d="M25.922,12.384c0,0-2.473,9.895-2.585,10.346
			c-0.426,0.233-10.301,5.667-10.301,5.667l0.6,0.976l10.744-5.911c0,0,2.482-9.931,2.59-10.365
			c0.371-0.218,4.844-2.845,5.301-3.113c0.535,0.21,14.153,5.564,14.733,5.792c0.099,0.581,2.51,14.844,2.67,15.792
			c-0.596,0.138-1.578,0.365-2.229,0.515c-0.238-1.039-2.99-13.063-2.99-13.063l-6.299-0.928l0.877,2.699l1.142-0.333
			c0,0-0.159-0.488-0.316-0.973c1.11,0.164,3.063,0.452,3.604,0.531c0.163,0.715,3.076,13.438,3.076,13.438l4.488-1.037
			l-2.949-17.443L32.162,8.718L25.922,12.384z"/>
	</g>
	<polyline fill="#FFFFFF" enable-background="new    " points="42.414,21.001 45.302,31.216 41.471,32.674 37.291,33.758 
		32.515,34.747 27.789,35.499 22.167,36.251 16.993,36.63 12.416,36.63 8.437,36.489 4.456,36.064 1.272,35.499 5.402,32.581 
		9.033,30.604 12.765,29.145 16.993,27.591 21.123,26.132 24.954,24.956 28.933,23.826 33.311,22.696 37.19,21.942 39.878,21.566 
		42.762,21.284 	"/>
	<path d="M39.645,21.15l-2.705,0.378l-3.905,0.758l-4.406,1.136l-3.991,1.133l-3.84,1.18l-4.148,1.465l-4.234,1.554l-3.74,1.463
		l-3.684,2.001L0,35.745l4.187,0.742L8.2,36.915l4.013,0.145h4.594l5.208-0.377l5.65-0.758l4.738-0.755l4.797-0.993l4.201-1.087
		l4.248-1.615l-2.987-10.577c0,0-0.093,0.024-0.126,0.032c0-0.008-0.007-0.062-0.007-0.062L39.645,21.15z M5.483,32.927l3.586-1.95
		l3.679-1.435l4.22-1.55l4.125-1.457l3.812-1.17l3.97-1.127l4.367-1.126l3.854-0.748l2.66-0.372c0,0,1.453-0.142,2.226-0.218
		c0.313,1.107,2.42,8.566,2.598,9.195c-0.599,0.229-3.463,1.32-3.463,1.32l-4.13,1.067l-4.753,0.984l-4.706,0.75l-5.61,0.75
		l-5.146,0.374l-4.542-0.002L8.266,36.07l-3.947-0.42c0,0-1.216-0.217-2.148-0.384C3.223,34.527,5.483,32.927,5.483,32.927z"/>
	<polygon points="1.172,35.087 1.372,35.914 43.761,26.686 43.56,25.861 	"/>
	<g>
		<polygon fill="#FFFFFF" enable-background="new    " points="49.829,20.201 51.221,29.733 54.903,28.557 57.488,27.427 
			59.877,25.92 62.664,24.226 63.659,22.908 63.659,21.59 63.261,20.836 62.266,20.083 60.276,19.801 57.787,19.66 54.504,19.707 
			51.919,19.895 		"/>
		<path d="M54.498,19.283l-2.615,0.189l-2.559,0.374l1.527,10.452l4.193-1.34l2.634-1.147l2.448-1.538l2.852-1.735l1.129-1.495
			v-1.554l-0.489-0.925l-1.166-0.883l-2.111-0.298l-2.527-0.146L54.498,19.283z M51.985,20.313l2.554-0.184l3.256-0.046l2.453,0.141
			c0,0,1.62,0.23,1.833,0.261c0.14,0.106,0.707,0.535,0.823,0.624c0.061,0.114,0.242,0.458,0.309,0.581c0,0.151,0,0.882,0,1.082
			c-0.134,0.175-0.782,1.033-0.863,1.142c-0.138,0.083-2.715,1.65-2.715,1.65l-2.393,1.51l-2.528,1.098c0,0-2.366,0.755-3.123,0.997
			c-0.128-0.867-1.154-7.899-1.259-8.613C50.878,20.476,51.985,20.313,51.985,20.313z"/>
	</g>
	<g>
		<polyline fill="#FF0000" enable-background="new    " points="58.086,27.615 59.481,28.368 61.098,28.722 62.739,28.51 
			61.47,26.297 61.47,25.544 		"/>
		<path fill="#FF0000" d="M61.022,25.544v0.861c0,0,0.659,1.151,1.012,1.768c-0.436,0.057-0.83,0.108-0.917,0.119
			c-0.144-0.031-1.537-0.335-1.537-0.335l-1.272-0.708l-0.443,0.735l1.396,0.753l1.816,0.416l2.364-0.305
			c0,0-1.425-2.484-1.522-2.657c0-0.158,0-0.646,0-0.646H61.022z"/>
	</g>
	<g>
		<polygon points="50.609,24.381 50.836,25.201 63.771,21.999 63.545,21.179 		"/>
	</g>
</g>
</svg>
