<?xml version="1.0" encoding="utf-8"?>
<!-- Generator: Adobe Illustrator 12.0.0, SVG Export Plug-In . SVG Version: 6.00 Build 51448)  -->
<!DOCTYPE svg PUBLIC "-//W3C//DTD SVG 1.1//EN" "http://www.w3.org/Graphics/SVG/1.1/DTD/svg11.dtd" [
	<!ENTITY ns_svg "http://www.w3.org/2000/svg">
	<!ENTITY ns_xlink "http://www.w3.org/1999/xlink">
]>
<svg  version="1.1" id="wave" xmlns="&ns_svg;" xmlns:xlink="&ns_xlink;" width="55.403" height="50.268"
	 viewBox="0 0 55.403 50.268" overflow="visible" enable-background="new 0 0 55.403 50.268" xml:space="preserve">
<g>
	<path fill="#0000FF" d="M23.446,0.237l-0.732,0.569l-0.423,0.676l-0.136,1.494L22.03,4.48c0,0-0.167,0.646-0.209,0.813
		c-0.086,0.108-0.362,0.453-0.533,0.666c-0.266,0-0.697,0-0.697,0l-1.07-0.122c0,0-0.556-0.002-0.741-0.002
		c-0.165-0.089-0.703-0.378-0.703-0.378l-1.296-0.537l-0.895,0.358l-0.627,0.558L14.45,6.834l-0.666,1.122l-0.578,0.683
		c0,0-0.153,0.175-0.28,0.32c-0.165,0-0.269,0-0.43,0c-0.199-0.213-0.665-0.715-0.665-0.715L10.41,7.1L9.447,7.012l-0.79,0.338
		L8.456,8.262l0.143,0.787L8.59,9.834c0,0,0,0.149,0,0.292c-0.384,0.092-0.928,0.221-0.928,0.221l-1.007,0.132l-0.996,0.689
		l-0.68,1.087l-0.296,0.782l-0.456,1.105c0,0-0.048,0.386-0.062,0.493c-0.047,0.104-0.268,0.603-0.268,0.603l0.073,1.537
		l0.324,0.647l1.262,0.459l0.646-1.077c0,0,0.022-0.242,0.031-0.347c0.175,0,0.613,0,0.613,0l0.52-0.728l0.21-0.91l0.013-0.612h-1
		v0.5c0,0-0.113,0.451-0.149,0.599c-0.031,0.044-0.054,0.076-0.108,0.151c-0.24,0-1.012,0-1.012,0s-0.079,0.87-0.094,1.028
		c-0.027,0.046-0.053,0.088-0.104,0.173c-0.055-0.02-0.068-0.025-0.113-0.041c-0.025-0.051-0.032-0.064-0.051-0.103
		c-0.008-0.161-0.043-0.91-0.052-1.088c0.063-0.141,0.232-0.522,0.232-0.522S5.19,14.5,5.203,14.4c0.045-0.11,0.412-1,0.412-1
		l0.257-0.707c0,0,0.43-0.672,0.522-0.817c0.115-0.08,0.496-0.343,0.631-0.437c0.182-0.024,0.818-0.109,0.818-0.109l1.747-0.413
		V8.959c0,0-0.089-0.521-0.116-0.675c0.014-0.062,0.024-0.11,0.048-0.217c0.042-0.018,0.052-0.022,0.085-0.037
		c0.124,0.011,0.271,0.025,0.412,0.038c0.192,0.154,1.132,0.906,1.132,0.906l0.907,0.984h1.32l0.587-0.671L14.6,8.529L15.271,7.4
		l0.709-0.878c0,0,0.334-0.291,0.436-0.38c0.079-0.031,0.208-0.083,0.358-0.143c0.255,0.105,0.875,0.36,0.875,0.36l0.877,0.475
		h0.938l1.07,0.122l1.233,0.003l0.968-1.21l0.276-1.106l0.138-1.58c0,0,0.096-1.055,0.114-1.252c0.065-0.104,0.15-0.241,0.202-0.324
		c0.085-0.067,0.278-0.216,0.393-0.306c0.164-0.027,0.617-0.103,0.83-0.138c0.184,0.101,0.536,0.292,0.536,0.292l1.337,0.638
		l0.917,0.49l0.665,0.568l1.148,0.62l0.97,0.607l0.981,0.676l0.91,0.522l0.967,0.448l1.189-0.079l0.606-0.379l0.401-0.383
		l0.438-0.639c0,0,0.095-0.108,0.187-0.215c0.01,0,0.01,0,0.02,0c0.126,0.111,0.245,0.217,0.333,0.295
		c0.068,0.171,0.331,0.828,0.331,0.828l0.507,1.143l0.531,0.872l0.71,0.971l0.753,1.004l1.014,1.09l2.42,0.569l1.143-0.428
		l0.878-0.198l0.847-0.776l0.636-0.896l0.53-0.987c0,0,0.229-0.668,0.263-0.769c0.03-0.048,0.093-0.148,0.171-0.273
		c0.086-0.019,0.106-0.024,0.186-0.042c0.055,0.028,0.064,0.032,0.126,0.063c0.054,0.251,0.137,0.64,0.137,0.64l0.052,1.539
		l0.451,1.911l0.774,1.887l0.23,1.462l0.969,2.002l0.478,1.384l0.692,1.826l0.425,1.462l0.758,2.21l0.486,2.077l0.563,2.257
		l0.241,1.64l0.252,1.45l0.254,1.147l0.114,2.293l0.126,1.637l0.061,2.599v1.988l-0.063,2.362l-0.247,2.463l-0.31,2.037l-0.19,1.9
		l-0.173,0.605l0.965,0.264l0.188-0.688l0.202-1.957l0.31-2.037l0.253-2.525l0.065-2.412v-2.013l-0.063-2.637l-0.127-1.651
		l-0.124-2.363l-0.261-1.207l-0.246-1.415l-0.248-1.675l-0.571-2.298l-0.499-2.118L52.5,20.484l-0.43-1.479l-0.7-1.849l-0.495-1.424
		c0,0-0.87-1.804-0.929-1.926c-0.021-0.128-0.238-1.429-0.238-1.429l-0.781-1.922l-0.413-1.738L48.465,7.19l-0.249-1.196
		l-0.874-0.437l-0.939,0.208l-0.455,0.729l-0.27,0.806l-0.467,0.86l-0.532,0.763c0,0-0.43,0.384-0.576,0.514
		c-0.179,0.042-0.688,0.159-0.688,0.159s-0.705,0.262-0.92,0.341c-0.218-0.051-1.612-0.379-1.831-0.431
		c-0.16-0.172-0.771-0.827-0.771-0.827l-0.715-0.958l-0.685-0.934l-0.478-0.779l-0.469-1.066l-0.412-1.03l-0.792-0.705h-0.858
		L34.96,3.821l-0.411,0.61l-0.25,0.236c0,0-0.179,0.105-0.298,0.175c-0.152,0.01-0.53,0.036-0.692,0.046
		c-0.17-0.079-0.696-0.322-0.696-0.322l-0.837-0.48l-0.965-0.666l-1.019-0.637L28.7,2.205l-0.664-0.567L27.013,1.08L25.68,0.445
		L24.866,0L23.446,0.237z"/>
</g>
<g>
	<path fill="#0000FF" d="M6.807,15.371c0,0,0.282,0.094,0.549,0.183c-0.003,0.028-0.012,0.093-0.012,0.093l-0.073,0.732
		c0,0,0.045,0.159,0.057,0.199c-0.111,0.083-0.271,0.204-0.271,0.204s-0.2,0.24-0.283,0.339c-0.105,0.053-0.338,0.169-0.338,0.169
		s-0.262,0.229-0.407,0.356c-0.222,0-0.625,0-0.625,0l-0.675,0.065L3.847,17.87l-0.661,0.661l-0.471,0.863v2.564
		c0,0,0.167,1.691,0.182,1.843c-0.027,0.119-0.135,0.585-0.155,0.675c-0.041,0.081-0.282,0.563-0.358,0.716
		c-0.133,0.1-0.53,0.397-0.605,0.454c-0.098,0.041-0.882,0.367-0.882,0.367l-0.438,1.053l0.073,0.872l0.237,0.828l0.687,0.801
		l0.903-0.401l0.659-0.479l0.357-0.5l-0.813-0.582c0,0-0.202,0.282-0.268,0.375c-0.095,0.071-0.438,0.328-0.438,0.328
		s-0.074,0.031-0.119,0.05c-0.033-0.038-0.049-0.058-0.07-0.082c-0.043-0.143-0.157-0.523-0.157-0.523s-0.024-0.359-0.035-0.522
		c0.046-0.111,0.117-0.28,0.188-0.451c0.212-0.089,0.618-0.258,0.618-0.258l0.895-0.671l0.517-1.034l0.22-0.95l-0.196-1.957
		c0,0,0.002-2.085,0.002-2.261c0.076-0.139,0.233-0.426,0.279-0.512c0.062-0.063,0.222-0.223,0.339-0.339
		c0.185-0.034,0.534-0.097,0.534-0.097l0.585-0.057l0.951,0.002c0,0,0.514-0.45,0.593-0.519c0.083-0.041,0.412-0.206,0.412-0.206
		s0.284-0.341,0.342-0.411c0.077-0.058,0.729-0.546,0.729-0.546s-0.16-0.562-0.193-0.676c0.014-0.137,0.053-0.53,0.053-0.53
		l0.112-0.895l-1.326-0.442L6.807,15.371z"/>
</g>
<g>
	<path fill="#0000FF" d="M0.524,29.318l-0.287,0.931L0,31.271l0.393,0.786c0.023,0.041,0.264,0.513,0.264,0.513
		c-0.004,0.055-0.004,0.369,0.608,0.894l0.373,0.319l0.826-0.93l0.323-0.387l0.334-0.569l0.204-0.817l-0.97-0.242
		c0,0-0.143,0.572-0.171,0.683c-0.051,0.09-0.216,0.378-0.216,0.378l-0.263,0.303c0,0-0.078,0.088-0.126,0.142
		c-0.096-0.235-0.316-0.773-0.316-0.773s-0.125-0.253-0.209-0.422c0.05-0.216,0.147-0.639,0.147-0.639s0.151-0.488,0.204-0.659
		c0.129-0.129,0.538-0.537,0.538-0.537l-0.707-0.707L0.524,29.318z"/>
</g>
<g>
	<path fill="#0000FF" enable-background="new    " d="M17.528,49.646"/>
</g>
<g id="XMLID_1_">
	<g>
		<path fill="#0088E7" d="M30.656,36.646v-1.88l0.119-1.5l-0.18-1.561l-0.26-1.25l-0.5-2.06l-0.811-1.63l-1-1.311l-0.62-1.31
			l-1.07-1.19l-0.93-1.119l-1.07-0.75l-1-0.75l-1-0.381l-1.5-0.56h-0.62l-0.88-0.19h-3.06l-1.37,0.25l-1.19,0.311l-1.19,0.439
			l-1.12,0.5l-0.75,0.75l-0.63,0.75l-0.56,0.82l-0.75,0.62l-0.31,0.56l-0.5,0.631l-0.5,0.75l-0.5,0.869l-0.25,0.811l-0.32,0.76
			l-0.43,1l-0.38,0.87l0.13,1.25l-0.32,0.25l-0.43-0.25l-0.19-0.62v-0.689l0.5-0.57l-0.06-0.37l0.12-0.94l-0.06-0.5
			c0,0-0.31-0.619-0.38-0.81c-0.06-0.19-0.12-0.81-0.12-0.81s0.12-0.381,0.12-0.631s0.38-0.869,0.38-0.869s0.12-0.631,0.12-0.811
			c0-0.189,0.5-0.689,0.5-0.689l0.57-0.57l-0.19,0.439l-0.06,0.69l0.81,0.06l0.63,0.131l0.12-1.061l0.06-0.76l-0.06-0.43l-0.38-0.75
			l0.19-0.82l0.19-0.561l0.38-0.25l0.56,0.44l-0.38,0.37l-0.25,0.88c0,0,0.38,0.69,0.63,0.75s0.56-0.5,0.56-0.5l0.44-0.81l0.06-0.94
			l0.31-1.06l0.07-1.19l0.24-0.75l0.19-0.69l0.5-0.5l0.31,0.31l-0.18,0.38l-0.38,0.94l-0.25,1.06l0.19,0.56h0.81l0.5-0.56l0.25-2.75
			v-1l0.25-0.56l0.69-0.38l-0.31,0.44l0.12,0.81l0.31,0.32l0.63-0.38l0.44-0.81l0.81-1.07l0.56-0.87l0.75-0.44h0.94h1.25l0.31,0.19
			l0.31,0.56l-0.56,0.13l-0.94,0.31l-0.43,0.5l0.5,0.69l0.75-0.19l0.37-0.44l0.81-0.25l0.82,0.19l0.44,0.31l-0.07,0.88l-0.43,0.5
			l-0.88,0.75l-0.69,0.68l-0.37,0.88l0.81,0.38l0.75-0.26l1.38-1.68l1-1.32l1.5-1.31l1.74-0.93l1.82-0.69l1.94-0.57l2.5-0.18l2,0.56
			l1.37,0.62l0.81,1l0.44,1l-0.56,1.07l-0.69,0.25l-0.63-0.32l-0.37-0.18l-1.06-0.75l-0.94,0.19l-0.44,0.68v0.75l0.69,0.38
			l1.25,0.25l1.94,0.12l1.689,0.06l1.93,0.19l1.631,0.13l1.5,0.62l1.31,0.63l1.63,1l0.5,0.93l-0.13,1h-1.25h-0.88l-0.5,0.439
			l0.439,0.561l0.75,0.07l1.69,0.31l0.69,0.56l0.81,0.44l1.44,1.44l0.75,1.939v1.811l-0.57-0.631l-0.311-0.31l-0.5,0.25l0.131,0.69
			l-0.061,0.869l0.811,0.5l2,1.25l0.25,0.631v0.56l-0.19,0.25l-0.31,0.63l-0.32,0.311l-0.12-0.381l-0.31-0.43l-0.44-0.189h-0.81
			l0.369,1.31l0.57,0.56l0.74,0.381l0.82,1.06l0.5,0.88l0.06,1.62l-0.12,0.44h-0.38l-0.12-0.5l-0.07-0.25l-0.31-0.5l-0.38-0.631
			l-0.37-0.619h-0.56l-0.69,0.25l0.25,1.43l0.63,0.5l0.68,0.57l0.69,0.93l0.63,0.63l0.5,0.56l-0.13,0.311l-0.31,0.13l-0.25-0.31
			l-0.57-0.32l-0.311,0.189l-0.119,1.311l0.5,0.189l0.56,1.25l0.56,1.94l-0.09,3.25v0.19l-0.02,0.439v0.18l-0.01,0.32l-1.631,0.12
			c-5.369,0-11.81-0.25-11.81-0.25l-4.37,0.25l-4.26-0.19l-3.5,0.311l-2.81-0.18l-3.93,0.06h-1l-0.01-0.12l0.13-0.01l0.44-0.05
			l1.18-0.13l1.32-0.131l1.06-0.119l1.24-0.95l0.88-0.681l0.82-0.56l0.62-0.87l0.94-0.88l0.56-1.31l0.82-1.19l0.62-1.88l0.75-1.74
			L30.656,36.646z"/>
	</g>
	<g>
		<path fill="none" stroke="#0000FF" d="M16.965,49.706l0.93-0.079l0.57-0.051l0.62-0.05l0.13-0.01l0.44-0.05l1.18-0.13l1.32-0.131
			l1.06-0.119l1.24-0.95l0.88-0.681l0.82-0.56l0.62-0.87l0.94-0.88l0.56-1.31l0.82-1.19l0.62-1.88l0.75-1.74l0.19-2.38v-1.88
			l0.119-1.5l-0.18-1.561l-0.26-1.25l-0.5-2.06l-0.811-1.63l-1-1.311l-0.62-1.31l-1.07-1.19l-0.93-1.119l-1.07-0.75l-1-0.75
			l-1-0.381l-1.5-0.56h-0.62l-0.88-0.19h-3.06l-1.37,0.25l-1.19,0.311l-1.19,0.439l-1.12,0.5l-0.75,0.75l-0.63,0.75l-0.56,0.82
			l-0.75,0.62l-0.31,0.56l-0.5,0.631l-0.5,0.75l-0.5,0.869l-0.25,0.811l-0.32,0.76l-0.43,1l-0.38,0.87l0.13,1.25l-0.32,0.25
			l-0.43-0.25l-0.19-0.62v-0.689l0.5-0.57l-0.06-0.37l0.12-0.94l-0.06-0.5c0,0-0.31-0.619-0.38-0.81c-0.06-0.19-0.12-0.81-0.12-0.81
			s0.12-0.381,0.12-0.631s0.38-0.869,0.38-0.869s0.12-0.631,0.12-0.811c0-0.189,0.5-0.689,0.5-0.689l0.57-0.57l-0.19,0.439
			l-0.06,0.69l0.81,0.06l0.63,0.131l0.12-1.061l0.06-0.76l-0.06-0.43l-0.38-0.75l0.19-0.82l0.19-0.561l0.38-0.25l0.56,0.44
			l-0.38,0.37l-0.25,0.88c0,0,0.38,0.69,0.63,0.75s0.56-0.5,0.56-0.5l0.44-0.81l0.06-0.94l0.31-1.06l0.07-1.19l0.24-0.75l0.19-0.69
			l0.5-0.5l0.31,0.31l-0.18,0.38l-0.38,0.94l-0.25,1.06l0.19,0.56h0.81l0.5-0.56l0.25-2.75v-1l0.25-0.56l0.69-0.38l-0.31,0.44
			l0.12,0.81l0.31,0.32l0.63-0.38l0.44-0.81l0.81-1.07l0.56-0.87l0.75-0.44h0.94h1.25l0.31,0.19l0.31,0.56l-0.56,0.13l-0.94,0.31
			l-0.43,0.5l0.5,0.69l0.75-0.19l0.37-0.44l0.81-0.25l0.82,0.19l0.44,0.31l-0.07,0.88l-0.43,0.5l-0.88,0.75l-0.69,0.68l-0.37,0.88
			l0.81,0.38l0.75-0.26l1.38-1.68l1-1.32l1.5-1.31l1.74-0.93l1.82-0.69l1.94-0.57l2.5-0.18l2,0.56l1.37,0.62l0.81,1l0.44,1
			l-0.56,1.07l-0.69,0.25l-0.63-0.32l-0.37-0.18l-1.06-0.75l-0.94,0.19l-0.44,0.68v0.75l0.69,0.38l1.25,0.25l1.94,0.12l1.689,0.06
			l1.93,0.19l1.631,0.13l1.5,0.62l1.31,0.63l1.63,1l0.5,0.93l-0.13,1h-1.25h-0.88l-0.5,0.439l0.439,0.561l0.75,0.07l1.69,0.31
			l0.69,0.56l0.81,0.44l1.44,1.44l0.75,1.939v1.811l-0.57-0.631l-0.311-0.31l-0.5,0.25l0.131,0.69l-0.061,0.869l0.811,0.5l2,1.25
			l0.25,0.631v0.56l-0.19,0.25l-0.31,0.63l-0.32,0.311l-0.12-0.381l-0.31-0.43l-0.44-0.189h-0.81l0.369,1.31l0.57,0.56l0.74,0.381
			l0.82,1.06l0.5,0.88l0.06,1.62l-0.12,0.44h-0.38l-0.12-0.5l-0.07-0.25l-0.31-0.5l-0.38-0.631l-0.37-0.619h-0.56l-0.69,0.25
			l0.25,1.43l0.63,0.5l0.68,0.57l0.69,0.93l0.63,0.63l0.5,0.56l-0.13,0.311l-0.31,0.13l-0.25-0.31l-0.57-0.32l-0.311,0.189
			l-0.119,1.311l0.5,0.189l0.56,1.25l0.56,1.94l-0.09,3.25v0.19l-0.02,0.439v0.18l-0.01,0.32l-1.631,0.12
			c-5.369,0-11.81-0.25-11.81-0.25l-4.37,0.25l-4.26-0.19l-3.5,0.311l-2.81-0.18l-3.93,0.06h-1"/>
	</g>
</g>
<polyline fill="none" stroke="#0000FF" points="2.778,30.646 2.715,31.146 2.715,31.834 2.464,32.854 2.215,33.584 2.028,34.459 
	2.028,34.959 2.278,35.584 2.653,35.771 3.34,35.709 3.715,35.146 3.778,34.521 3.903,34.271 4.153,34.396 4.153,35.459 
	4.028,36.521 4.153,37.521 3.653,38.459 3.59,39.021 3.59,39.834 4.278,40.396 4.903,40.771 5.653,40.646 6.028,40.334 
	6.215,39.521 6.215,38.834 5.903,37.959 5.59,37.459 5.465,36.084 5.403,34.084 5.215,33.209 5.278,32.271 5.465,31.521 "/>
<polyline fill="none" stroke="#0000FF" points="52.406,49.526 53.965,49.584 54.09,48.709 "/>
</svg>
