<?xml version="1.0" encoding="utf-8"?>
<!-- Generator: Adobe Illustrator 12.0.0, SVG Export Plug-In . SVG Version: 6.00 Build 51448)  -->
<!DOCTYPE svg PUBLIC "-//W3C//DTD SVG 1.1//EN" "http://www.w3.org/Graphics/SVG/1.1/DTD/svg11.dtd" [
	<!ENTITY ns_svg "http://www.w3.org/2000/svg">
	<!ENTITY ns_xlink "http://www.w3.org/1999/xlink">
]>
<svg  version="1.1" id="Layer_2" xmlns="&ns_svg;" xmlns:xlink="&ns_xlink;" width="62.102" height="35.896"
	 viewBox="0 0 62.102 35.896" overflow="visible" enable-background="new 0 0 62.102 35.896" xml:space="preserve">
<polygon fill="#FF0000" stroke="#FF0000" points="3.051,17.947 18.885,34.197 18.801,34.947 18.301,35.365 17.635,35.365 
	0.801,18.53 0.551,18.03 0.801,17.447 17.385,0.697 18.135,0.53 18.718,0.864 18.968,1.614 18.718,2.364 "/>
<polygon fill="#FF0000" stroke="#FF0000" points="59.051,18.033 43.308,1.695 43.396,0.945 43.898,0.53 44.564,0.534 61.304,17.462 
	61.551,17.963 61.298,18.546 44.62,35.201 43.869,35.365 43.288,35.027 43.042,34.277 43.296,33.527 "/>
<circle id="_x3C_dot3_x3E_" stroke="#000000" cx="18.176" cy="17.947" r="1.708"/>
<circle id="_x3C_dot2_x3E_" stroke="#000000" cx="30.968" cy="17.947" r="1.708"/>
<circle id="_x3C_dot1_x3E_" stroke="#000000" cx="42.593" cy="17.947" r="1.708"/>
</svg>
